<svg id="Group_2" data-name="Group 2" xmlns="http://www.w3.org/2000/svg" xmlns:xlink="http://www.w3.org/1999/xlink" width="120" height="38.417" viewBox="0 0 120 38.417">
  <defs>
    <clipPath id="clip-path">
      <rect id="Rectangle_54" data-name="Rectangle 54" width="120" height="38.417" fill="#fff"/>
    </clipPath>
  </defs>
  <g id="Group_1" data-name="Group 1" clip-path="url(#clip-path)">
    <path id="Path_1" data-name="Path 1" d="M233.8,37.046l.215.161a9.534,9.534,0,0,0,15.254-7.627V5.445a3.6,3.6,0,0,0-7.2,0V29.513a2.376,2.376,0,0,1-2.181,2.4,2.316,2.316,0,0,1-1.752-.627,2.345,2.345,0,0,1-.739-1.7V5.445a3.6,3.6,0,0,0-7.2,0V29.513a2.376,2.376,0,0,1-2.181,2.4,2.314,2.314,0,0,1-1.752-.627,2.345,2.345,0,0,1-.739-1.7V5.445a3.6,3.6,0,0,0-7.2,0V29.581a9.534,9.534,0,0,0,15.254,7.627Z" transform="translate(-176.03 -1.488)" fill="#fff"/>
    <path id="Path_2" data-name="Path 2" d="M475.18,37.046l.215.161a9.534,9.534,0,0,0,15.254-7.627V11.38a9.534,9.534,0,0,0-19.068,0v18.2a2.336,2.336,0,0,1-4.672,0V5.445a3.6,3.6,0,0,0-7.2,0V29.581a9.534,9.534,0,0,0,15.254,7.627Zm5.935-5.13a2.338,2.338,0,0,1-2.336-2.336V11.38a2.336,2.336,0,1,1,4.672,0v18.2a2.338,2.338,0,0,1-2.336,2.336" transform="translate(-370.649 -1.488)" fill="#fff"/>
    <path id="Path_3" data-name="Path 3" d="M18.74,0A19.175,19.175,0,0,0,0,19.275V35.516a2.11,2.11,0,0,0,4.221,0V28.3a2.11,2.11,0,0,1,4.22,0v4.355a2.11,2.11,0,0,0,4.221,0V29.73a2.11,2.11,0,0,1,4.221,0v6.577a2.11,2.11,0,1,0,4.22,0V28.3a2.11,2.11,0,0,1,4.221,0v5.786a2.11,2.11,0,0,0,4.22,0V31.16a2.11,2.11,0,0,1,4.221,0v4.355a2.11,2.11,0,0,0,4.22,0V18.991A18.992,18.992,0,0,0,18.74,0M12.315,13.864a2.11,2.11,0,1,1,2.11-2.11,2.11,2.11,0,0,1-2.11,2.11m11.073,4.772a5.435,5.435,0,0,1-8.793,0,1.31,1.31,0,0,1,1.059-2.079,1.334,1.334,0,0,1,1.073.564,2.8,2.8,0,0,0,4.529,0,1.334,1.334,0,0,1,1.073-.564,1.31,1.31,0,0,1,1.059,2.079m2.361-5.071a2.11,2.11,0,1,1,2.11-2.11,2.11,2.11,0,0,1-2.11,2.11" transform="translate(0 0)" fill="#fff"/>
    <path id="Path_4" data-name="Path 4" d="M403.888,59.34a3.6,3.6,0,0,0-3.6,3.6v18.4a3.6,3.6,0,1,0,7.2,0v-18.4a3.6,3.6,0,0,0-3.6-3.6" transform="translate(-322.739 -47.844)" fill="#fff"/>
    <path id="Path_5" data-name="Path 5" d="M407.486,5.418a3.6,3.6,0,1,1-3.6-3.6,3.6,3.6,0,0,1,3.6,3.6" transform="translate(-322.738 -1.467)" fill="#fff"/>
  </g>
</svg>
