<?xml version="1.0" encoding="utf-8"?>
<!-- Generator: Adobe Illustrator 27.8.0, SVG Export Plug-In . SVG Version: 6.00 Build 0)  -->
<svg version="1.1" id="Group_4" xmlns="http://www.w3.org/2000/svg" xmlns:xlink="http://www.w3.org/1999/xlink" x="0px" y="0px"
	 viewBox="0 0 85.5 40.9" style="enable-background:new 0 0 85.5 40.9;" xml:space="preserve">
<style type="text/css">
	.st0{fill:#264d6b;}
</style>
<g>
	<defs>
		<rect id="SVGID_1_" x="-48.3" y="0" width="131.7" height="42.1"/>
	</defs>
	<clipPath id="SVGID_00000003816666212235488450000003857584055892375958_">
		<use xlink:href="#SVGID_1_"  style="overflow:visible;"/>
	</clipPath>
</g>
<g id="Group_3">
	<path id="Path_6" class="st0" d="M17,38.6l0.2,0.2c4.6,3.5,11.2,2.5,14.6-2.1c1.4-1.8,2.1-4,2.1-6.3V3.9C33.9,1.8,32.2,0,30,0
		S26,1.8,26,3.9v26.4c0,1.4-1,2.5-2.4,2.6c-0.7,0-1.4-0.2-1.9-0.7c-0.5-0.5-0.8-1.2-0.8-1.9V3.9C20.9,1.8,19.2,0,17,0S13,1.8,13,3.9
		v26.4c0,1.4-1,2.5-2.4,2.6c-0.7,0-1.4-0.2-1.9-0.7c-0.5-0.5-0.8-1.2-0.8-1.9V3.9C7.9,1.8,6.1,0,3.9,0S0,1.8,0,3.9v26.5
		c0,5.8,4.7,10.5,10.5,10.5c2.3,0,4.5-0.7,6.3-2.1L17,38.6z"/>
	<path id="Path_7" class="st0" d="M68.3,38.6l0.2,0.2c4.6,3.5,11.2,2.5,14.6-2.1c1.4-1.8,2.1-4,2.1-6.3v-20C85.3,4.7,80.6,0,74.8,0
		C69,0,64.3,4.7,64.3,10.5v20c0,1.4-1.2,2.5-2.6,2.5c-1.4,0-2.5-1.1-2.5-2.5V3.9c0-2.2-1.8-3.9-3.9-3.9c-2.2,0-4,1.8-4,3.9v26.5
		c0,5.8,4.7,10.5,10.5,10.5c2.3,0,4.5-0.7,6.3-2.1L68.3,38.6z M74.8,33c-1.4,0-2.6-1.1-2.6-2.6v-20c0-1.4,1.1-2.6,2.5-2.6
		c1.4,0,2.6,1.1,2.6,2.5c0,0,0,0.1,0,0.1v20C77.4,31.8,76.2,33,74.8,33"/>
	<path id="Path_9" class="st0" d="M42.6,12.2c-2.2,0-3.9,1.8-3.9,3.9v20.2c0,2.2,1.8,3.9,4,3.9c2.2,0,3.9-1.8,3.9-3.9V16.2
		C46.6,14,44.8,12.2,42.6,12.2"/>
	<path id="Path_10" class="st0" d="M46.6,3.9c0,2.2-1.8,3.9-3.9,3.9s-3.9-1.8-3.9-3.9S40.4,0,42.6,0C44.8,0,46.6,1.8,46.6,3.9
		C46.6,3.9,46.6,3.9,46.6,3.9"/>
</g>
</svg>
