<?xml version="1.0" encoding="utf-8"?>
<!-- Generator: Adobe Illustrator 27.8.0, SVG Export Plug-In . SVG Version: 6.00 Build 0)  -->
<svg version="1.1" id="Layer_1" xmlns="http://www.w3.org/2000/svg" xmlns:xlink="http://www.w3.org/1999/xlink" x="0px" y="0px"
	 viewBox="0 0 68 68.6" style="enable-background:new 0 0 68 68.6;" xml:space="preserve">
<style type="text/css">
	.st0{fill:#E50008;}
	.st1{clip-path:url(#SVGID_00000036239188763221977300000012439497585056250047_);fill:#FFFFFF;}
	.st2{clip-path:url(#SVGID_00000036239188763221977300000012439497585056250047_);fill:#E50008;}
</style>
<path id="Path_3" class="st0" d="M34,69.5L34,69.5 M7.6,56.7v-5.3c0-2.1,1.7-3.8,3.8-3.8l0,0c2.1,0,3.8,1.7,3.8,3.8l0,0V54h7.6
	c0-2.1,1.7-3.8,3.8-3.8l0,0c3.5,0,3.8,3.8,3.8,3.8h7.6v-2.6c0-2.1,1.7-3.8,3.8-3.8l0,0c2.1,0,3.8,1.7,3.8,3.8l0,0v5.2l7.5-0.1
	c0-2.1,1.7-3.8,3.8-3.8l0,0c2.1,0,3.8,1.7,3.8,3.8V58l7.5-0.2l0,0v-23c0-18.8-15.2-34-34-34h-0.5C14.9,1,0,16.5,0,35.2v21.7
	 M22.1,25.5c-2.1,0-3.8-1.7-3.8-3.8v0l0,0c0-2.1,1.7-3.8,3.8-3.8l0,0c2.1,0,3.8,1.7,3.8,3.8l0,0l0,0C25.8,23.9,24.1,25.6,22.1,25.5
	L22.1,25.5L22.1,25.5L22.1,25.5z M41.9,34.1c-3.1,4.3-9.2,5.3-13.6,2.2c-0.8-0.6-1.6-1.4-2.2-2.2c-0.8-1-0.6-2.5,0.4-3.3
	c1-0.8,2.5-0.6,3.3,0.4c0,0.1,0.1,0.1,0.1,0.2c1.6,2.2,4.7,2.8,7,1.1c0,0,0,0,0,0c0.4-0.3,0.8-0.7,1.1-1.1c0.8-1.1,2.2-1.3,3.3-0.5
	S42.7,33,41.9,34.1L41.9,34.1z M46.1,25c-2.1,0-3.8-1.7-3.8-3.8l0,0c0-2.1,1.7-3.8,3.8-3.8l0,0c2.1,0,3.8,1.7,3.8,3.8l0,0
	C49.9,23.3,48.2,25,46.1,25z"/>
<path class="st0" d="M30.2,61.8c0,2.1,1.7,3.8,3.8,3.8c2.1,0,3.8-1.7,3.8-3.8c0,0,0,0,0,0l0,0V45.1h-7.6V61.8z"/>
<path class="st0" d="M45.4,59.8c0,2.1,1.7,3.8,3.8,3.8c2.1,0,3.8-1.7,3.8-3.8V43.2h-7.6V59.8z"/>
<path class="st0" d="M60.5,64.3c0,2.1,1.7,3.8,3.8,3.8c2.1,0,3.8-1.7,3.8-3.8V47.7h-7.6V64.3z"/>
<path class="st0" d="M15.1,59c0,2.1,1.7,3.8,3.8,3.8s3.8-1.7,3.8-3.8V42.3h-7.6V59z"/>
<path class="st0" d="M0,63.8c0,2.1,1.7,3.8,3.8,3.8s3.8-1.7,3.8-3.8V47.1H0V63.8z"/>
<g>
	<defs>
		<rect id="SVGID_1_" x="20.6" y="27.7" width="26.5" height="13.5"/>
	</defs>
	<clipPath id="SVGID_00000025441892983172922900000000289113507448534697_">
		<use xlink:href="#SVGID_1_"  style="overflow:visible;"/>
	</clipPath>
	
		<rect x="21.7" y="28.7" style="clip-path:url(#SVGID_00000025441892983172922900000000289113507448534697_);fill:#FFFFFF;" width="24.5" height="11.7"/>
	
		<path id="Path_3_00000139272982206621509760000008322765708222324885_" style="clip-path:url(#SVGID_00000025441892983172922900000000289113507448534697_);fill:#E50008;" d="
		M34.4,0L34.4,0 M60.8,12.8v5.3c0,2.1-1.7,3.8-3.8,3.8l0,0c-2.1,0-3.8-1.7-3.8-3.8l0,0v-2.6h-7.6c0,2.1-1.7,3.8-3.8,3.8l0,0
		c-3.5,0-3.8-3.8-3.8-3.8h-7.6v2.6c0,2.1-1.7,3.8-3.8,3.8l0,0c-2.1,0-3.8-1.7-3.8-3.8l0,0v-5.2L15.5,13c0,2.1-1.7,3.8-3.8,3.8l0,0
		c-2.1,0-3.8-1.7-3.8-3.8v-1.5l-7.5,0.2l0,0v23c0,18.8,15.2,34,34,34h0.5C53.5,68.5,68.4,53,68.4,34.3V12.6 M46.3,44
		c2.1,0,3.8,1.7,3.8,3.8l0,0l0,0c0,2.1-1.7,3.8-3.8,3.8l0,0c-2.1,0-3.8-1.7-3.8-3.8l0,0l0,0C42.5,45.7,44.2,44,46.3,44L46.3,44
		L46.3,44L46.3,44z M26.5,35.4c3.1-4.3,9.2-5.3,13.6-2.2c0.8,0.6,1.6,1.4,2.2,2.2c0.8,1,0.6,2.5-0.4,3.3c-1,0.8-2.5,0.6-3.3-0.4
		c0-0.1-0.1-0.1-0.1-0.2c-1.6-2.2-4.7-2.8-7-1.1c0,0,0,0,0,0c-0.4,0.3-0.8,0.7-1.1,1.1c-0.8,1.1-2.2,1.3-3.3,0.5
		S25.7,36.5,26.5,35.4L26.5,35.4z M22.2,44.5c2.1,0,3.8,1.7,3.8,3.8l0,0c0,2.1-1.7,3.8-3.8,3.8l0,0c-2.1,0-3.8-1.7-3.8-3.8l0,0
		C18.5,46.2,20.1,44.5,22.2,44.5z"/>
</g>
</svg>
