<svg id="Layer_1" data-name="Layer 1" xmlns="http://www.w3.org/2000/svg" viewBox="0 0 68 82.23"><path id="Path_3" data-name="Path 3" d="M34,75.53h0M7.56,62.75V57.4a3.78,3.78,0,0,1,3.78-3.78h0a3.78,3.78,0,0,1,3.78,3.78h0V60h7.56a3.78,3.78,0,0,1,3.78-3.78h0C30,56.18,30.24,60,30.24,60H37.8V57.4a3.78,3.78,0,0,1,3.78-3.78h0a3.78,3.78,0,0,1,3.78,3.78h0v5.21l7.55-.08a3.78,3.78,0,0,1,3.78-3.78h0a3.79,3.79,0,0,1,3.77,3.78V64L68,63.78h0V40.73a34,34,0,0,0-34-34h-.45C14.87,7,0,22.54,0,41.23V62.94m22.06-31.4a3.78,3.78,0,0,1-3.78-3.78h0A3.78,3.78,0,0,1,22.06,24h0a3.78,3.78,0,0,1,3.78,3.78h0a3.78,3.78,0,0,1-3.78,3.78h0ZM41.9,40.09a9.71,9.71,0,0,1-15.75,0A2.36,2.36,0,1,1,30,37.37a5,5,0,0,0,7,1.13,5,5,0,0,0,1.13-1.13,2.34,2.34,0,1,1,3.82,2.72ZM46.13,31a3.78,3.78,0,0,1-3.78-3.78h0a3.78,3.78,0,0,1,3.78-3.78h0a3.78,3.78,0,0,1,3.78,3.78h0A3.78,3.78,0,0,1,46.13,31Z" style="fill:#e88b39;"></path><path d="M30.24,67.8a3.78,3.78,0,1,0,7.56,0h0V51.14H30.24Z" style="fill:#e88b39;animation-delay:0.25s" class="jelly-foot"></path><path d="M45.37,65.85a3.78,3.78,0,0,0,7.56,0V49.18H45.37Z" style="fill:#e88b39;animation-delay:0.10s" class="jelly-foot"></path><path d="M60.48,70.33a3.78,3.78,0,1,0,7.56,0V53.67H60.48Z" style="fill:#e88b39;animation-delay:0.8s" class="jelly-foot"></path><path d="M15.12,65a3.78,3.78,0,0,0,7.56,0V48.34H15.12Z" style="fill:#e88b39" class="jelly-foot"></path><path d="M0,69.8a3.78,3.78,0,0,0,7.56,0V53.14H0Z" style="fill:#e88b39" class="jelly-foot"></path></svg>