<?xml version="1.0" encoding="UTF-8"?>
<svg id="Layer_1" data-name="Layer 1" xmlns="http://www.w3.org/2000/svg" width="65.5" height="54.33" viewBox="0 0 65.5 54.33">
  <path d="m52.09,27.14v-5.68c0-11.54-9.35-20.89-20.89-20.89-.09,0-.19,0-.28,0-11.5.26-20.67,9.69-20.61,21.2v5.38h41.79Zm-13.46-16.3c1.28,0,2.32,1.04,2.32,2.32s-1.04,2.32-2.32,2.32c-1.28,0-2.32-1.04-2.32-2.32s1.04-2.32,2.32-2.32Zm-11.95,8.21c.25-.18.54-.27.84-.27.47,0,.91.24,1.18.62,1,1.38,2.93,1.68,4.31.68.26-.19.49-.42.68-.68.27-.38.71-.61,1.18-.62.8,0,1.44.65,1.44,1.44,0,.3-.1.6-.27.84h0c-1.94,2.67-5.68,3.26-8.35,1.32-.51-.37-.95-.81-1.32-1.32-.47-.64-.32-1.55.32-2.01Zm-2.83-7.88c1.28,0,2.32,1.04,2.32,2.32s-1.04,2.32-2.32,2.32-2.32-1.04-2.32-2.32,1.04-2.32,2.32-2.32Z" style="fill: #e88b39; stroke-width: 0px;"/>
  <path id="Path_35" data-name="Path 35" d="m12.56,21.52s-15.02,8.6-4.78,28.77" style="fill: none; stroke: #e88b39; stroke-linecap: round; stroke-width: 6px;"/>
  <path id="Rectangle_237" data-name="Rectangle 237" d="m55.82,23.64h0c1.38.12,2.39,1.33,2.27,2.71l-.26,2.99c-.12,1.38-1.33,2.39-2.71,2.27h0c-1.38-.12-2.39-1.33-2.27-2.71l.26-2.99c.12-1.38,1.33-2.39,2.71-2.27Z" style="fill: #e88b39; stroke-width: 0px;"/>
  <path id="Rectangle_238" data-name="Rectangle 238" d="m60.79,23.67h0c1.37-.17,2.62.81,2.79,2.18l1.1,8.93c.17,1.37-.81,2.62-2.18,2.79h0c-1.37.17-2.62-.81-2.79-2.18l-1.1-8.93c-.17-1.37.81-2.62,2.18-2.79Z" style="fill: #e88b39; stroke-width: 0px;"/>
</svg>