<svg id="eNrRg0SeJ3D1" xmlns="http://www.w3.org/2000/svg" xmlns:xlink="http://www.w3.org/1999/xlink" viewBox="0 0 628.82 628.82" shape-rendering="geometricPrecision" text-rendering="geometricPrecision">
<style><![CDATA[
#eNrRg0SeJ3D6_to {animation: eNrRg0SeJ3D6_to__to 800ms linear infinite normal forwards}@keyframes eNrRg0SeJ3D6_to__to { 0% {transform: translate(173.970001px,309.544998px)} 37.5% {transform: translate(173.970001px,261.044998px)} 100% {transform: translate(173.970001px,309.544998px)}} #eNrRg0SeJ3D8_to {animation: eNrRg0SeJ3D8_to__to 800ms linear infinite normal forwards}@keyframes eNrRg0SeJ3D8_to__to { 0% {transform: translate(245.140007px,281.215012px)} 75% {transform: translate(245.140007px,304.939806px)} 100% {transform: translate(245.140007px,281.215012px)}} #eNrRg0SeJ3D9_to {animation: eNrRg0SeJ3D9_to__to 800ms linear infinite normal forwards}@keyframes eNrRg0SeJ3D9_to__to { 0% {transform: translate(316.23999px,290.344994px);animation-timing-function: cubic-bezier(0.42,0,0.58,1)} 50% {transform: translate(316.23999px,270.009457px);animation-timing-function: cubic-bezier(0.42,0,0.58,1)} 100% {transform: translate(316.23999px,290.344994px)}} #eNrRg0SeJ3D10_to {animation: eNrRg0SeJ3D10_to__to 800ms linear infinite normal forwards}@keyframes eNrRg0SeJ3D10_to__to { 0% {transform: translate(387.60498px,307.855003px)} 37.5% {transform: translate(387.60498px,281.215003px)} 100% {transform: translate(387.60498px,307.855003px)}} #eNrRg0SeJ3D11_to {animation: eNrRg0SeJ3D11_to__to 800ms linear infinite normal forwards}@keyframes eNrRg0SeJ3D11_to__to { 0% {transform: translate(458.525009px,308.794998px)} 75% {transform: translate(458.525009px,318.962766px)} 100% {transform: translate(458.525009px,308.794998px)}}
]]></style>
<path d="M199.91,558.26l1.08.81c8.265175,6.238012,18.345046,9.59914,28.7,9.57c26.417025-.027549,47.826931-21.432981,47.86-47.85v-121.14c-.230858-9.81146-8.250824-17.644941-18.065-17.644941s-17.834142,7.833481-18.065,17.644941v120.8c.057786,6.251122-4.719717,11.486741-10.95,12-3.242236.230168-6.431939-.912899-8.79-3.15-2.364438-2.215294-3.707254-5.309925-3.71-8.55v-121.1c-.230858-9.81146-8.250824-17.644941-18.065-17.644941s-17.834142,7.833481-18.065,17.644941v120.8c.063076,6.249446-4.711368,11.486495-10.94,12-3.245623.233035-6.439527-.910237-8.8-3.15-2.357762-2.219124-3.696274-5.312171-3.7-8.55v-121.1c-.230858-9.81146-8.250824-17.644941-18.065-17.644941s-17.834142,7.833481-18.065,17.644941v121.14c0,18.124243,10.240014,34.692933,26.450829,42.798341s35.609777,6.356205,50.109171-4.518341Z" fill="#546a7c"/><path d="M317.26,438.85c-9.969693.011022-18.048978,8.090307-18.06,18.06v92.35c.230858,9.81146,8.250824,17.644941,18.065,17.644941s17.834142-7.833481,18.065-17.644941v-92.35c-.01653-9.971311-8.098682-18.04899-18.07-18.06Z" fill="#546a7c"/><path d="M434.62,558.26l1.08.81c14.499394,10.874546,33.898355,12.623749,50.109171,4.518341s26.450829-24.674098,26.450829-42.798341v-91.35c0-17.095159-9.120158-32.891737-23.925-41.439316s-33.045159-8.547579-47.85,0-23.925,24.344157-23.925,41.439316v91.35c.124732,4.270588-2.082359,8.271253-5.761407,10.443368s-8.248138,2.172115-11.927186,0-5.886139-6.17278-5.761407-10.443368v-121.14c-.230858-9.81146-8.250824-17.644941-18.065-17.644941s-17.834142,7.833481-18.065,17.644941v121.14c0,18.124243,10.240014,34.692933,26.450829,42.798341s35.609777,6.356205,50.109171-4.518341Zm29.79-25.74c-6.476015-.005514-11.724486-5.253985-11.73-11.73v-91.35c.185239-6.342241,5.380055-11.387546,11.725-11.387546s11.539761,5.045305,11.725,11.387546v91.35c-.005503,6.472116-5.247891,11.718977-11.72,11.73Z" fill="#546a7c"/><circle r="18.06" transform="translate(317.26 400.98)" fill="#e88b37"/><g id="eNrRg0SeJ3D6_to" transform="translate(173.970001,309.544998)"><rect width="35.56" height="106.73" rx="17.78" ry="17.78" transform="translate(-17.780001,-53.364998)" fill="#e88b37"/></g><path d="M191.8,278.09c0-4.718201,1.874298-9.243157,5.21057-12.57943s7.861229-5.21057,12.57943-5.21057v0c4.719934-.002653,9.247459,1.870474,12.585895,5.207034s5.214106,7.863032,5.214105,12.582966v20.91h35.61v-8.85c-.000001-4.719934,1.87567-9.246407,5.214105-12.582966s7.865961-5.209687,12.585895-5.207034v0c4.718201,0,9.243157,1.874298,12.57943,5.21057s5.21057,7.861229,5.21057,12.57943v8.85h35.58v-20.91c-.000001-4.719934,1.87567-9.246407,5.214105-12.582966s7.865961-5.209687,12.585895-5.207034v0c4.718201,0,9.243157,1.874298,12.57943,5.21057s5.21057,7.861229,5.21057,12.57943v20.91h35.89c1.545199-8.445316,8.904489-14.580162,17.49-14.58v0c8.574197.014308,15.916847,6.145799,17.46,14.58h35.89v-99.39c-.001596-42.840832-17.167556-83.895045-47.661003-113.986348s-71.771919-46.710761-114.608997-46.143652c-88,1.15-158,74.5-158,162.51v97h35.58ZM373.33,118.26c9.825146,0,17.79,7.964854,17.79,17.79s-7.964854,17.79-17.79,17.79-17.79-7.964854-17.79-17.79c-.002655-4.719015,1.870791-9.245514,5.207639-12.582361s7.863346-5.210294,12.582361-5.207639Zm-85.12,60.82c3.603315.042518,6.968191,1.808613,9.05,4.75c4.445827,6.101613,11.540493,9.710424,19.09,9.710424s14.644173-3.608811,19.09-9.710424c2.086083-2.941693,5.453965-4.707415,9.06-4.75c4.16301-.025769,7.983879,2.300848,9.871869,6.011214s1.519572,8.168667-.951869,11.518786c-8.584449,11.922009-22.378946,18.987726-37.07,18.987726s-28.485551-7.065717-37.07-18.987726c-2.47255-3.351569-2.840156-7.812157-.949657-11.523294s5.714847-6.036291,9.879657-6.006706Zm-28.15-58.3c9.830669,0,17.8,7.969331,17.8,17.8s-7.969331,17.8-17.8,17.8-17.8-7.969331-17.8-17.8c0-4.720853,1.875352-9.248353,5.213499-12.5865s7.865647-5.2135,12.586501-5.2135Z" fill="#e88b37"/><g id="eNrRg0SeJ3D8_to" transform="translate(245.140007,281.215012)"><rect width="35.56" height="106.73" rx="17.78" ry="17.78" transform="translate(-17.780007,-53.365012)" fill="#e88b37"/></g><g id="eNrRg0SeJ3D9_to" transform="translate(316.23999,290.344994)"><rect width="35.56" height="106.73" rx="17.78" ry="17.78" transform="translate(-17.77999,-53.364994)" fill="#e88b37"/></g><g id="eNrRg0SeJ3D10_to" transform="translate(387.60498,307.855003)"><rect width="35.99" height="106.73" rx="17.78" ry="17.78" transform="translate(-17.99498,-53.365003)" fill="#e88b37"/></g><g id="eNrRg0SeJ3D11_to" transform="translate(458.525009,308.794998)"><rect width="35.97" height="106.73" rx="17.78" ry="17.78" transform="translate(-17.985009,-53.364998)" fill="#e88b37"/></g></svg>
